Coordinates
version=1
nRows=22
nColumns=24
inDegrees=yes

Units are S.I. units (second, meters, Newtons, ...)
Angles are in degrees.

endheader
time	pelvis_tilt	pelvis_list	pelvis_rotation	pelvis_tx	pelvis_ty	pelvis_tz	hip_flexion_r	hip_adduction_r	hip_rotation_r	knee_angle_r	ankle_angle_r	subtalar_angle_r	mtp_angle_r	hip_flexion_l	hip_adduction_l	hip_rotation_l	knee_angle_l	ankle_angle_l	subtalar_angle_l	mtp_angle_l	lumbar_extension	lumbar_bending	lumbar_rotation
      0.45800000	     -7.05834383	      4.18899417	     -1.55514853	     -0.82982480	      1.02749398	      0.26435996	     36.08973158	     -2.96725425	      2.67740195	     -6.39421167	     11.13404917	     -4.22659740	      8.03779169	     -9.31000421	      5.72942089	      1.88962252	     -5.52649235	     20.07251536	      6.60488462	      1.01053831	    -12.51888048	     -3.55811126	     -4.99964024
      0.46216667	     -7.08204486	      4.18683425	     -1.37980113	     -0.82406407	      1.02657474	      0.26448404	     36.00801621	     -3.01577828	      2.93428838	     -6.68214857	     11.06500548	     -4.33693343	      8.04318910	     -9.43209937	      5.67950684	      1.92546694	     -5.93959958	     20.23045439	      6.82609777	      1.03971160	    -12.48027280	     -3.41883066	     -5.09266049
      0.46633333	     -7.11417443	      4.18007152	     -1.20935563	     -0.81825896	      1.02568596	      0.26461640	     35.93434672	     -3.05761913	      3.12651296	     -7.00056152	     11.01639889	     -4.34581257	      8.04605833	     -9.55094805	      5.62826466	      2.04405183	     -6.34694620	     20.31885919	      6.86993823	      1.05193350	    -12.45090225	     -3.28737230	     -5.08039528
      0.47050000	     -7.14854942	      4.15388782	     -1.03429365	     -0.81239039	      1.02482563	      0.26475932	     35.82297803	     -3.07998588	      3.36227995	     -7.26555378	     10.81834120	     -4.56430528	      8.06360084	     -9.61754999	      5.53836884	      1.90727090	     -6.85790591	     20.52747377	      7.38268336	      1.13899328	    -12.36723455	     -3.10012660	     -5.21640930
      0.47466667	     -7.17126223	      4.13273684	     -0.87012851	     -0.80652940	      1.02402075	      0.26492410	     35.71375879	     -3.10219398	      3.52349454	     -7.57665814	     10.65040315	     -4.66476770	      8.09441632	     -9.68991059	      5.45704576	      1.82596207	     -7.38732691	     20.66050826	      7.72971920	      1.25694449	    -12.32838916	     -2.94451817	     -5.21048491
      0.47883333	     -7.20142119	      4.11469587	     -0.69504139	     -0.80061712	      1.02326950	      0.26505577	     35.60997114	     -3.13711132	      3.59467596	     -7.90429502	     10.44914828	     -4.70561155	      8.10320042	     -9.78269969	      5.38533507	      1.91544121	     -7.85813112	     20.72225941	      7.82994385	      1.30035494	    -12.26427107	     -2.79848797	     -5.20613377
      0.48300000	     -7.26183777	      4.05997353	     -0.53346996	     -0.79465205	      1.02251252	      0.26525082	     35.50371273	     -3.12013581	      3.74923904	     -8.18051310	     10.14574287	     -4.93684515	      8.14739227	     -9.78294576	      5.25477802	      1.71289852	     -8.45434185	     20.83781761	      8.36172376	      1.47432671	    -12.16549873	     -2.57759373	     -5.30531420
      0.48716667	     -7.29368918	      4.00687054	     -0.37512259	     -0.78869013	      1.02185395	      0.26544091	     35.38167510	     -3.10903125	      3.79977755	     -8.49262884	      9.81779097	     -5.07088123	      8.20646944	     -9.81262069	      5.12917248	      1.58771346	     -9.05161345	     20.91766700	      8.76137775	      1.69713455	    -12.10719088	     -2.38170204	     -5.29005513
      0.49133333	     -7.32875796	      3.94462743	     -0.21826267	     -0.78270168	      1.02125143	      0.26562633	     35.25792893	     -3.08994336	      3.81644299	     -8.80166696	      9.45606182	     -5.21472433	      8.26300357	     -9.83433278	      4.99523597	      1.49821899	     -9.65742012	     20.95071549	      9.08770437	      1.91937475	    -12.03317021	     -2.16319852	     -5.29484677
      0.49550000	     -7.38323632	      3.88013186	     -0.07114313	     -0.77669114	      1.02068192	      0.26584629	     35.16108851	     -3.06163591	      3.80751065	     -9.12796858	      9.03765158	     -5.37580587	      8.32643132	     -9.81214701	      4.85574897	      1.37055315	    -10.30834844	     20.96211297	      9.44686371	      2.18430999	    -11.93803769	     -1.95385889	     -5.27819510
      0.49966667	     -7.42951219	      3.80355890	      0.06517134	     -0.77067776	      1.02018333	      0.26608253	     35.05976750	     -3.01798590	      3.77724924	     -9.46342602	      8.57754985	     -5.54228364	      8.40278683	     -9.78626771	      4.70167509	      1.22160155	    -10.98338519	     20.95820901	      9.84454128	      2.52065010	    -11.85797809	     -1.72535829	     -5.25403935
      0.50383333	     -7.47637606	      3.71954302	      0.20422811	     -0.76465391	      1.01977062	      0.26632584	     34.95767083	     -2.97155193	      3.70966682	     -9.79885008	      8.08465357	     -5.68483149	      8.50439825	     -9.73399566	      4.53623075	      1.07258229	    -11.70392360	     20.90303408	     10.22261908	      3.00199988	    -11.77671133	     -1.50724907	     -5.20992070
      0.50800000	     -7.54275769	      3.61989732	      0.31854992	     -0.75859465	      1.01937569	      0.26659483	     34.90240880	     -2.89771535	      3.60603344	    -10.19323219	      7.58687138	     -5.85159206	      8.58431591	     -9.65455092	      4.36092729	      0.93345904	    -12.43618602	     20.81389250	     10.53275566	      3.44132639	    -11.65802305	     -1.24990847	     -5.15901935
      0.51216667	     -7.58804214	      3.49496383	      0.43190739	     -0.75252767	      1.01909829	      0.26686784	     34.82147269	     -2.80356037	      3.47241946	    -10.58682624	      7.12649761	     -5.98610920	      8.65147191	     -9.56899073	      4.15479845	      0.77027251	    -13.22007046	     20.69941426	     10.82505098	      3.86844057	    -11.56311210	     -0.95844976	     -5.07268021
      0.51633333	     -7.65171226	      3.37636552	      0.52811328	     -0.74646784	      1.01885528	      0.26717947	     34.78373334	     -2.70740501	      3.32722543	    -11.02488584	      6.65255390	     -6.10842442	      8.70311001	     -9.44612348	      3.95983373	      0.63094556	    -14.03855731	     20.52646104	     11.07044313	      4.28218295	    -11.45406369	     -0.68420581	     -4.97728609
      0.52050000	     -7.66816360	      3.25153119	      0.62398083	     -0.74042096	      1.01877928	      0.26748453	     34.71116293	     -2.61176068	      3.13353518	    -11.50020811	      6.19440674	     -6.20676661	      9.07786459	     -9.36627560	      3.75839560	      0.52983701	    -14.84652204	     20.20678397	     11.29215456	      7.49820492	    -11.42125336	     -0.40924632	     -4.87354718
      0.52466667	     -7.74786340	      3.12002620	      0.67615139	     -0.73434154	      1.01863754	      0.26786406	     34.72435651	     -2.48483494	      2.99099324	    -12.00957363	      5.75964206	     -6.26597690	      9.06824258	     -9.18847641	      3.56001693	      0.38784031	    -15.73342658	     19.96786202	     11.41081741	      7.57032191	    -11.27998101	     -0.12142781	     -4.75457419
      0.52883333	     -7.78621600	      2.97711643	      0.71180264	     -0.72827249	      1.01862358	      0.26828383	     34.71307920	     -2.34149866	      2.82826048	    -12.56387129	      5.34754223	     -6.34024576	      9.05417479	     -9.02722856	      3.33942369	      0.16616937	    -16.66478483	     19.67698400	     11.69804907	      7.74037175	    -11.20584508	      0.17385852	     -4.60898586
      0.53300000	     -7.81871274	      2.82001342	      0.73806285	     -0.72219723	      1.01868349	      0.26870520	     34.70473339	     -2.18405065	      2.65246321	    -13.14524804	      5.00601196	     -6.38149821	      9.03666090	     -8.84895233	      3.10746888	     -0.03599559	    -17.63675408	     19.34870715	     11.90252645	      7.97372743	    -11.13561832	      0.48726029	     -4.44516223
      0.53716667	     -7.84442941	      2.65935304	      0.75391544	     -0.71612004	      1.01882393	      0.26916371	     34.69372800	     -2.01941292	      2.48428645	    -13.74048825	      4.70927647	     -6.39872172	      9.01469345	     -8.64494619	      2.86952672	     -0.24472111	    -18.66251382	     18.96777487	     12.06594268	      8.25103841	    -11.07065323	      0.79582292	     -4.26833925
      0.54133333	     -7.87081135	      2.49334553	      0.74348573	     -0.71003565	      1.01900685	      0.26965720	     34.69932821	     -1.83851677	      2.32410791	    -14.37270379	      4.44720568	     -6.40130761	      8.98375900	     -8.42240795	      2.62766750	     -0.47427509	    -19.72287220	     18.52905023	     12.24021139	      8.59608509	    -11.00955679	      1.11226708	     -4.07135083
      0.54550000	     -7.86409124	      2.32651686	      0.70801383	     -0.70395195	      1.01930857	      0.27021538	     34.66558009	     -1.64026412	      2.21649746	    -14.99677170	      4.17754203	     -6.47261454	      8.63775310	     -8.22258785	      2.38500679	     -0.70415604	    -20.78279777	     17.92928100	     12.32480808	     12.26840074	    -10.99129285	      1.43449730	     -3.91614997
